<?xml version="1.0" standalone="no"?><!DOCTYPE svg PUBLIC "-//W3C//DTD SVG 1.1//EN" "http://www.w3.org/Graphics/SVG/1.1/DTD/svg11.dtd"><svg t="1647331061623" class="icon" viewBox="0 0 1024 1024" version="1.1" xmlns="http://www.w3.org/2000/svg" p-id="7834" xmlns:xlink="http://www.w3.org/1999/xlink" width="64" height="64"><defs><style type="text/css"></style></defs><path d="M510.501463 110.891707c220.706466 0 399.609756 178.919274 399.609757 399.609756 0 97.397885-34.845971 186.659715-92.751423 255.996004L952.721608 901.859278a7.992195 7.992195 0 0 1 0 11.302962l-39.559368 39.559368a7.992195 7.992195 0 0 1-11.302962 0L766.497467 817.359797C697.163177 875.26425 607.902345 910.11122 510.501463 910.11122c-220.706466 0-399.609756-178.919274-399.609756-399.609757s178.90329-399.609756 399.609756-399.609756z m0 71.929756c-180.974267 0-327.68 146.709729-327.68 327.68s146.705733 327.68 327.68 327.68 327.68-146.709729 327.68-327.68-146.705733-327.68-327.68-327.68z" p-id="7835" fill="#8a8a8a"></path></svg>